<svg width="120" height="120" viewBox="0 0 120 120" fill="none" xmlns="http://www.w3.org/2000/svg">
<circle opacity="0.5" cx="60" cy="60" r="60" fill="#E0E0E0"/>
<circle cx="59.5759" cy="59.5759" r="50.5759" fill="#E7E7E7"/>
<path d="M70 67.9167C69.7333 67.9167 69.4833 67.8333 69.25 67.6667C68.7 67.25 68.5833 66.4667 69 65.9167C71.6166 62.4333 71.6166 57.5667 69 54.0833C68.5833 53.5333 68.7 52.75 69.25 52.3333C69.8 51.9167 70.5833 52.0333 71 52.5833C74.2666 56.95 74.2666 63.05 71 67.4167C70.75 67.75 70.3833 67.9167 70 67.9167Z" fill="#B2B2B2"/>
<path d="M73.0498 72.0833C72.7831 72.0833 72.5331 72 72.2998 71.8333C71.7498 71.4167 71.6331 70.6333 72.0498 70.0833C76.4998 64.15 76.4998 55.85 72.0498 49.9167C71.6331 49.3667 71.7498 48.5833 72.2998 48.1667C72.8498 47.75 73.6331 47.8667 74.0498 48.4167C79.1664 55.2333 79.1664 64.7667 74.0498 71.5833C73.8164 71.9167 73.4331 72.0833 73.0498 72.0833Z" fill="#B2B2B2"/>
<path d="M63.3668 46.3C61.5002 45.2667 59.1168 45.5333 56.6835 47.05L51.8168 50.1C51.4835 50.3 51.1002 50.4167 50.7168 50.4167H49.1668H48.3335C44.3002 50.4167 42.0835 52.6333 42.0835 56.6667V63.3333C42.0835 67.3667 44.3002 69.5833 48.3335 69.5833H49.1668H50.7168C51.1002 69.5833 51.4835 69.7 51.8168 69.9L56.6835 72.95C58.1502 73.8667 59.5835 74.3167 60.9168 74.3167C61.7835 74.3167 62.6168 74.1167 63.3668 73.7C65.2168 72.6667 66.2502 70.5167 66.2502 67.65V52.35C66.2502 49.4833 65.2168 47.3333 63.3668 46.3Z" fill="#B2B2B2"/>
</svg>
