<svg width="48" height="48" viewBox="0 0 48 48" fill="none" xmlns="http://www.w3.org/2000/svg">
<path d="M40.9706 7.02947C36.4376 2.49647 30.4106 0 24 0C17.5894 0 11.5624 2.49647 7.02938 7.02947C2.49638 11.5625 0 17.5894 0 24C0 30.4106 2.49638 36.4376 7.02938 40.9705C11.5624 45.5034 17.5894 48 24 48C30.4106 48 36.4376 45.5035 40.9706 40.9705C45.5036 36.4375 48 30.4106 48 24C48 17.5894 45.5036 11.5624 40.9706 7.02947ZM24 43.2893C13.3638 43.2893 4.71075 34.6361 4.71075 24C4.71075 23.9826 4.71131 23.9653 4.71141 23.9481C4.71141 23.9437 4.71075 23.9394 4.71075 23.935C4.71075 23.9276 4.71169 23.9205 4.71187 23.9132C4.75866 13.4045 13.2512 4.85475 23.7379 4.71413C23.7598 4.71309 23.7816 4.71084 23.8038 4.71084C23.8171 4.71084 23.83 4.71244 23.8433 4.71281C23.8956 4.71244 23.9477 4.71084 24.0001 4.71084C34.6363 4.71084 43.2893 13.364 43.2893 24.0001C43.2893 34.6362 34.6362 43.2893 24 43.2893Z" fill="#FFA63D"/>
<path d="M38.6523 25.1587C37.868 25.1587 37.2321 24.5229 37.2321 23.7386C37.2321 22.9543 37.868 22.3185 38.6523 22.3185H40.364C39.56 14.4364 33.1676 8.18353 25.2242 7.59647V9.08662C25.2242 9.87094 24.5884 10.5067 23.804 10.5067C23.0197 10.5067 22.3839 9.87094 22.3839 9.08662V7.6304C14.558 8.39728 8.32433 14.6712 7.61905 22.5147H9.15205C9.93636 22.5147 10.5722 23.1505 10.5722 23.9348C10.5722 24.7192 9.93636 25.355 9.15205 25.355H7.60742C8.26039 33.3247 14.6191 39.7029 22.5802 40.387V38.5868C22.5802 37.8024 23.216 37.1666 24.0004 37.1666C24.7847 37.1666 25.4205 37.8024 25.4205 38.5868V40.387C33.4468 39.6973 39.8442 33.2197 40.408 25.1587H38.6523ZM29.7491 20.2596L25.0046 25.0042C24.7383 25.2705 24.3771 25.4201 24.0005 25.4201C23.6239 25.4201 23.2625 25.2705 22.9963 25.0042L14.7376 16.7454C14.183 16.1909 14.183 15.2917 14.7376 14.7371C15.2921 14.1825 16.1913 14.1825 16.7459 14.7371L24.0005 21.9917L27.741 18.2512C28.2955 17.6966 29.1947 17.6966 29.7493 18.2512C30.3037 18.8058 30.3037 19.705 29.7491 20.2596Z" fill="#FFA63D"/>
</svg>
