<svg width="24" height="24" viewBox="0 0 24 24" fill="none" xmlns="http://www.w3.org/2000/svg">
<path d="M17.9507 22.1127L12.3168 19.5332L6.92017 22.7411C5.83755 23.3852 4.50601 22.5206 4.66637 21.2797L5.46883 15.0912L0.827966 11.0041C-0.102751 10.1854 0.329588 8.64061 1.55842 8.39051L5.03352 7.68501C5.03418 7.68385 5.03533 7.68449 5.03533 7.68449L7.68891 7.14488L10.2181 1.4121C10.7241 0.262337 12.3226 0.170986 12.9216 1.25765L15.9082 6.67697L22.1126 7.21993C23.3556 7.32882 23.912 8.81664 23.0531 9.73797L18.7686 14.3332L19.8404 19.3144L20.0745 20.4013C20.3351 21.6183 19.0822 22.6294 17.9507 22.1127Z" fill="#FFDE3D"/>
<g opacity="0.35">
<path opacity="0.35" d="M0.864775 8.57394C0.749393 9.08179 0.882577 9.64351 1.32671 10.0371L5.96817 14.1522L5.16537 20.4115C5.00506 21.6665 6.33658 22.5356 7.41948 21.8808L12.8171 18.6179L18.4519 21.2052C19.0648 21.4857 19.7126 21.3128 20.137 20.9004C20.1254 20.9542 20.1105 21.0069 20.0932 21.0586C20.1755 20.8119 20.1973 20.538 20.1367 20.2528L19.9025 19.1547C18.8772 19.7978 16.3847 18.1212 14.7724 16.8752C13.9151 16.2126 12.7089 16.2501 11.8631 16.9612C10.6249 18.0023 8.92723 19.2308 8.21114 18.8323C7.58006 18.4812 7.68077 16.3811 7.84798 14.8388C7.95484 13.8525 7.43528 12.9156 6.55143 12.5041C5.35671 11.9477 3.79618 11.1201 3.17281 10.3453C2.22306 9.16394 3.66094 8.12841 5.09368 7.45149L1.6182 8.17757C1.26052 8.25247 0.970894 8.43835 0.762029 8.68411C0.794546 8.64582 0.828658 8.60919 0.864775 8.57394Z" fill="#CE6313"/>
</g>
</svg>
