<svg width="32" height="32" viewBox="0 0 32 32" fill="none" xmlns="http://www.w3.org/2000/svg">
<path d="M28.2937 27.3383C27.9781 27.1545 26.0566 25.9645 25.0285 23.813C27.4296 21.5678 28.7953 18.4445 28.7953 15.248C28.7953 8.63249 23.0269 3.2002 15.9977 3.2002C8.96846 3.2002 3.20001 8.63249 3.20001 15.248C3.20001 21.8635 8.96846 27.2958 15.9977 27.2958C16.9413 27.2958 17.9548 27.2073 19.3532 26.9135C23.0286 28.8665 26.3275 28.8116 27.5827 28.7918C28.1414 28.7849 28.5471 28.8858 28.7558 28.3085C28.8971 27.9213 28.6881 27.4741 28.2937 27.3383ZM17.4974 21.2969C17.4974 22.1251 16.826 22.7966 15.9977 22.7966C15.1694 22.7966 14.4979 22.1251 14.4979 21.2969V15.248C14.4979 14.4197 15.1694 13.7482 15.9977 13.7482C16.826 13.7482 17.4974 14.4197 17.4974 15.248V21.2969ZM15.9977 11.4487C15.1694 11.4487 14.4979 10.7771 14.4979 9.94894C14.4979 9.12064 15.1694 8.44919 15.9977 8.44919C16.826 8.44919 17.4974 9.12064 17.4974 9.94894C17.4974 10.7772 16.826 11.4487 15.9977 11.4487Z" fill="#9CDE51"/>
</svg>
