<svg width="35" height="32" viewBox="0 0 35 32" fill="none" xmlns="http://www.w3.org/2000/svg">
<path d="M0 9.567L5.99099 3.62885C8.17422 5.06207 11.3513 7.63723 14.7765 10.9175C15.589 10.0274 16.4407 9.14116 17.3423 8.24743C22.2089 3.42379 25.2252 1.64949 27.7477 0L35 7.25772C30.0614 8.1804 24.5505 10.5276 19.1518 15.3733C22.7831 19.3067 26.3459 23.8017 29.009 28.3711L25.2252 30.0206C23.2819 26.9708 19.497 23.0751 15.1786 19.4414C12.3132 22.7636 9.52996 26.8933 6.93694 32L2.83784 28.3711C5.55919 23.436 7.96739 19.4838 10.663 15.8861C6.92578 13.1389 3.12658 10.8251 0 9.567Z" fill="white"/>
</svg>
