<svg width="24" height="24" viewBox="0 0 24 24" fill="none" xmlns="http://www.w3.org/2000/svg">
<rect x="0.5" y="0.5" width="23" height="23" rx="7.5" fill="#E6FFF4"/>
<rect x="0.5" y="0.5" width="23" height="23" rx="7.5" stroke="#3BC44E"/>
<path d="M10.0105 15.2711C9.52095 14.0797 8.73235 12.2592 7.96386 10.907C7.50189 10.0941 6.45212 10.0479 5.791 10.709C5.09955 11.4004 5.15174 12.5458 5.817 13.2625C6.702 14.2158 7.60965 15.3784 8.40038 16.5069C9.35458 17.8687 11.6703 17.8853 12.53 16.462C14.1114 13.8437 16.1234 10.7849 17.997 8.5289C18.7297 7.64669 18.0795 6 16.9327 6C16.6531 6 16.3806 6.09457 16.1788 6.28819C14.0191 8.36088 11.9151 13.0408 10.9903 15.272C10.8138 15.6978 10.1857 15.6975 10.0105 15.2711Z" fill="#3BC44E"/>
</svg>
