<svg width="17" height="16" viewBox="0 0 17 16" fill="none" xmlns="http://www.w3.org/2000/svg">
<rect x="0.5" width="16" height="16" rx="8" fill="#FA4136"/>
<path d="M4.5 6.19244L5.86937 4.83161C6.36839 5.16006 7.09458 5.7502 7.87749 6.50192C8.06319 6.29795 8.25786 6.09485 8.46396 5.89004C9.57632 4.78462 10.2658 4.37801 10.8423 4L12.5 5.66323C11.3712 5.87467 10.1115 6.41257 8.87754 7.52304C9.70757 8.42446 10.5219 9.45455 11.1306 10.5017L10.2658 10.8797C9.82157 10.1808 8.95647 9.28805 7.96941 8.45532C7.31445 9.21666 6.67828 10.163 6.08559 11.3333L5.14865 10.5017C5.77067 9.37074 6.32112 8.46503 6.93726 7.64056C6.08304 7.01099 5.21465 6.48076 4.5 6.19244Z" fill="white"/>
</svg>
