<svg width="24" height="24" viewBox="0 0 24 24" fill="none" xmlns="http://www.w3.org/2000/svg">
<path d="M21.2202 20.5036C20.9835 20.3657 19.5423 19.4733 18.7712 17.8597C20.5721 16.1758 21.5964 13.8332 21.5964 11.4359C21.5964 6.47425 17.27 2.40002 11.9981 2.40002C6.72624 2.40002 2.3999 6.47425 2.3999 11.4359C2.3999 16.3975 6.72624 20.4717 11.9981 20.4717C12.7058 20.4717 13.466 20.4054 14.5148 20.185C17.2713 21.6498 19.7455 21.6086 20.6869 21.5938C21.1059 21.5885 21.4102 21.6642 21.5667 21.2313C21.6727 20.9409 21.516 20.6054 21.2202 20.5036ZM13.123 15.9725C13.123 16.5937 12.6194 17.0974 11.9981 17.0974C11.3769 17.0974 10.8733 16.5937 10.8733 15.9725V11.4359C10.8733 10.8146 11.3769 10.3111 11.9981 10.3111C12.6194 10.3111 13.123 10.8146 13.123 11.4359V15.9725ZM11.9981 8.5864C11.3769 8.5864 10.8733 8.08274 10.8733 7.46159C10.8733 6.84036 11.3769 6.33677 11.9981 6.33677C12.6194 6.33677 13.123 6.84036 13.123 7.46159C13.123 8.08277 12.6194 8.5864 11.9981 8.5864Z" fill="#9CDE51"/>
</svg>
