<svg width="24" height="24" viewBox="0 0 24 24" fill="none" xmlns="http://www.w3.org/2000/svg">
<g clip-path="url(#clip0_1800_34996)">
<path d="M22.5 16.9846C22.4672 17.1216 22.4344 17.2641 22.3961 17.401C22.068 18.5462 21.0398 19.3242 19.8258 19.3132C19.5578 19.3132 19.4156 19.379 19.2844 19.6255C18.7156 20.6775 17.4742 21.2035 16.3094 20.9131C15.1281 20.6227 14.2969 19.5926 14.2695 18.3434C14.2477 17.0778 14.2477 15.8066 14.2695 14.541C14.2914 13.3137 15.1227 12.2946 16.2875 11.9987C17.4633 11.7029 18.65 12.2014 19.2789 13.2589C19.3008 13.2972 19.3281 13.3356 19.3555 13.3849C19.5469 11.6481 18.8469 9.00717 16.6539 7.23197C14.3023 5.32527 10.9938 5.04036 8.40703 6.50874C5.65625 8.07026 4.44766 10.9413 4.62266 13.4013C4.65547 13.363 4.67188 13.3411 4.68828 13.3137C5.32813 12.2453 6.46563 11.7248 7.61406 11.9823C8.77344 12.2398 9.64844 13.1822 9.70859 14.415C9.77422 15.8066 9.76328 17.2093 9.69766 18.6064C9.64297 19.7844 8.72422 20.7158 7.54297 20.9569C6.43828 21.1816 5.25156 20.6446 4.71563 19.631C4.57891 19.3735 4.43125 19.3187 4.16875 19.3242C3.05859 19.3351 2.07422 18.6667 1.68047 17.6366C1.59844 17.4284 1.56016 17.2038 1.5 16.9901C1.5 16.7709 1.5 16.5518 1.5 16.3326C1.51094 16.3162 1.52734 16.2998 1.53281 16.2833C1.63672 15.6204 1.94844 15.0779 2.45156 14.6341C2.50625 14.5848 2.53906 14.4807 2.53906 14.404C2.55 14.026 2.54453 13.6534 2.54453 13.2753C2.53359 12.311 2.61016 11.3577 2.9 10.4372C4.09766 6.64571 6.64609 4.33357 10.5453 3.64321C13.0883 3.19393 15.4563 3.79662 17.5453 5.32527C19.7875 6.9635 21.0836 9.1825 21.3898 11.9549C21.4773 12.7439 21.4445 13.5383 21.4555 14.3328C21.4555 14.4807 21.4883 14.5848 21.6086 14.6834C21.975 14.9903 22.2211 15.3793 22.3688 15.834C22.4234 15.9929 22.4563 16.1573 22.5055 16.3217C22.5 16.5408 22.5 16.76 22.5 16.9846Z" fill="black"/>
</g>
<defs>
<clipPath id="clip0_1800_34996">
<rect width="21" height="17.5" fill="white" transform="translate(1.5 3.5)"/>
</clipPath>
</defs>
</svg>
