<svg width="177" height="26" viewBox="0 0 177 26" fill="none" xmlns="http://www.w3.org/2000/svg">
<g clip-path="url(#clip0_50_1820)">
<path d="M100.079 21.2391V20.0252C99.1738 21.0153 98.2164 21.3941 96.8277 21.3941C95.5166 21.3941 94.3608 20.9722 93.6277 20.2232C92.3684 18.9577 92.2649 16.9431 92.2649 14.7563C92.2649 12.5696 92.3684 10.5808 93.6277 9.31527C94.3608 8.56626 95.4908 8.14441 96.8018 8.14441C98.1129 8.14441 99.1479 8.48878 100.002 9.4358V3.54706H103.279V21.2391H100.079ZM97.7592 11.0457C95.7926 11.0457 95.5425 12.6643 95.5425 14.7477C95.5425 16.8312 95.7926 18.4755 97.7592 18.4755C99.7258 18.4755 100.002 16.8398 100.002 14.7477C100.002 12.6557 99.7258 11.0457 97.7592 11.0457Z" fill="#07509D"/>
<path d="M113.129 21.2391V20.0424C112.276 20.9378 111.059 21.3854 109.852 21.3854C108.541 21.3854 107.48 20.9636 106.755 20.2404C105.694 19.1987 105.418 17.9762 105.418 16.5643V8.29074H108.696V16.1166C108.696 17.8815 109.826 18.4755 110.861 18.4755C111.896 18.4755 113.052 17.8815 113.052 16.1166V8.29074H116.329V21.2391H113.129Z" fill="#07509D"/>
<path d="M123.842 21.3854C121.22 21.3854 117.968 19.9907 117.968 14.7477C117.968 9.50465 121.22 8.13577 123.842 8.13577C125.653 8.13577 127.016 8.67816 128.172 9.87485L125.955 12.0616C125.274 11.3384 124.696 11.0457 123.842 11.0457C123.057 11.0457 122.453 11.3212 121.979 11.8894C121.479 12.5093 121.246 13.3788 121.246 14.7477C121.246 16.1166 121.47 17.0119 121.979 17.6318C122.453 18.2 123.066 18.4755 123.842 18.4755C124.696 18.4755 125.283 18.1742 125.955 17.4596L128.172 19.6205C127.016 20.8172 125.653 21.3854 123.842 21.3854Z" fill="#07509D"/>
<path d="M135.935 21.2391V20.1199C135.055 20.9894 134.218 21.3596 132.709 21.3596C131.199 21.3596 130.113 20.9636 129.354 20.2146C128.646 19.4914 128.267 18.4497 128.267 17.3047C128.267 15.2384 129.707 13.551 132.804 13.551H135.848V12.9053C135.848 11.4848 135.141 10.8649 133.408 10.8649C132.226 10.8649 131.596 11.1921 130.889 11.9841L128.819 9.96955C130.104 8.57485 131.337 8.12717 133.528 8.12717C137.229 8.12717 139.126 9.66823 139.126 12.6987V21.2219H135.926L135.935 21.2391ZM135.857 15.7722H133.364C132.053 15.7722 131.424 16.2974 131.424 17.2616C131.424 18.157 132.053 18.7252 133.416 18.7252C134.227 18.7252 134.805 18.6219 135.357 18.1053C135.736 17.7782 135.857 17.2874 135.857 16.4696V15.7722Z" fill="#07509D"/>
<path d="M145.379 21.2391C142.706 21.2391 141.576 19.3795 141.576 17.5371V11.1232H140.187V8.66096H141.576V4.83844H144.853V8.66096H147.174V11.1232H144.853V17.3391C144.853 18.0881 145.207 18.51 145.983 18.51H147.165V21.2391H145.379Z" fill="#07509D"/>
<path d="M148.709 6.07816V3.44373H152.064V6.07816H148.709ZM148.761 21.2391V8.66094H152.038V21.2391H148.761Z" fill="#07509D"/>
<path d="M163.372 19.7927C162.544 20.6364 161.233 21.3854 159.292 21.3854C157.351 21.3854 156.066 20.6364 155.238 19.7927C154.057 18.553 153.755 17.0808 153.755 14.7477C153.755 12.4146 154.057 10.9682 155.238 9.72849C156.066 8.88478 157.351 8.13577 159.292 8.13577C161.233 8.13577 162.544 8.85895 163.372 9.72849C164.554 10.9682 164.855 12.4146 164.855 14.7477C164.855 17.0808 164.579 18.5702 163.372 19.7927ZM160.827 11.6225C160.448 11.2523 159.948 11.0543 159.292 11.0543C158.637 11.0543 158.162 11.2523 157.783 11.6225C157.101 12.2682 157.024 13.4391 157.024 14.7563C157.024 16.0735 157.101 17.2702 157.783 17.9159C158.162 18.2861 158.662 18.4841 159.292 18.4841C159.922 18.4841 160.448 18.2861 160.827 17.9159C161.509 17.2702 161.586 16.0993 161.586 14.7563C161.586 13.4133 161.509 12.2682 160.827 11.6225Z" fill="#07509D"/>
<path d="M173.731 21.2391V13.4133C173.731 11.6484 172.601 11.0543 171.566 11.0543C170.531 11.0543 169.375 11.6484 169.375 13.4133V21.2391H166.098V8.29074H169.298V9.48743C170.152 8.59206 171.368 8.14438 172.575 8.14438C173.886 8.14438 174.947 8.56623 175.672 9.28941C176.733 10.3311 177.009 11.5537 177.009 12.9656V21.2391H173.731Z" fill="#07509D"/>
<path d="M80.2327 18.2C80.5605 18.5185 80.7416 18.9232 80.7416 19.4742C80.7416 20.0252 80.5605 20.4298 80.2327 20.7569C79.7497 21.2305 79.2063 21.2391 78.2834 21.2391C77.3605 21.2391 76.8171 21.2391 76.3341 20.7569C76.0063 20.4384 75.8252 20.0252 75.8252 19.4742C75.8252 18.9232 76.0063 18.5185 76.3341 18.2C76.8171 17.7265 77.3605 17.7093 78.2834 17.7093C79.2063 17.7093 79.7497 17.7265 80.2327 18.2ZM76.9206 18.8715C76.7654 19.0093 76.6618 19.2159 76.6618 19.4656C76.6618 19.7152 76.7654 19.9305 76.9206 20.0682C77.1276 20.2404 77.3519 20.3006 78.2834 20.3006C79.2149 20.3006 79.4306 20.249 79.6376 20.0682C79.7928 19.9305 79.905 19.7152 79.905 19.4656C79.905 19.2159 79.7928 19.0007 79.6376 18.8715C79.4306 18.6993 79.2063 18.6391 78.2834 18.6391C77.3605 18.6391 77.1276 18.6993 76.9206 18.8715Z" fill="#07509D"/>
<path d="M80.6985 14.3L77.7228 16.194H80.6985V17.1238H75.8511V16.2887L78.8182 14.3947H75.8511V13.4649H80.6985V14.3Z" fill="#07509D"/>
<path d="M80.6985 12.7245H75.8511V11.7947H79.8532V9.62515H80.6985V12.7245Z" fill="#07509D"/>
<path d="M80.6985 9.23775H75.8511V8.30795H80.6985V9.23775Z" fill="#07509D"/>
<path d="M80.6985 4.73512L77.7228 6.62916H80.6985V7.55896H75.8511V6.72387L78.8182 4.82983H75.8511V3.90002H80.6985V4.73512Z" fill="#07509D"/>
<path d="M80.6985 3.1596H75.8511V0.00860596H76.6964V2.22119H77.8349V0.344368H78.6802V2.2298H79.8532V0.00860596H80.6985V3.1596Z" fill="#07509D"/>
<path d="M11.6873 19.3709C10.2986 20.7656 8.63394 21.3854 6.61561 21.3854C4.59729 21.3854 3.07924 20.7397 1.76819 19.4397C0.983285 18.6649 0.508893 17.7695 0.301886 16.7795C0.103504 15.7808 0 14.3172 0 12.3715C0 10.4258 0.103504 8.96224 0.301886 7.96357C0.500268 6.93906 0.983285 6.06953 1.76819 5.3033C3.07924 4.01191 4.70079 3.3576 6.61561 3.3576C10.704 3.3576 12.9035 5.949 13.3779 9.03111H9.84148C9.41021 7.30926 8.3493 6.43972 6.60699 6.43972C5.67545 6.43972 4.91643 6.76688 4.36441 7.38674C3.70888 8.20462 3.5105 8.85893 3.5105 12.3629C3.5105 15.8669 3.65713 16.547 4.36441 17.3649C4.89055 17.9848 5.64958 18.2861 6.60699 18.2861C7.64202 18.2861 8.47868 17.9589 9.10833 17.2874C9.63447 16.6934 9.91911 15.8927 9.91911 14.9199V14.2483H6.61561V11.3642H13.4037V13.9556C13.4037 16.547 12.9207 18.0622 11.6873 19.3536" fill="#07509D"/>
<path d="M21.8652 21.2391V20.1199C20.9855 20.9894 20.1488 21.3596 18.6308 21.3596C17.1127 21.3596 16.0518 20.9894 15.2755 20.2146C14.5682 19.4914 14.1887 18.4497 14.1887 17.3046C14.1887 15.2384 15.6291 13.551 18.6825 13.551H21.7876V12.9053C21.7876 11.4848 21.0803 10.8649 19.338 10.8649C18.0787 10.8649 17.4922 11.1662 16.8108 11.9324L14.7149 9.91787C16 8.52316 17.2593 8.12714 19.4588 8.12714C23.1418 8.12714 25.0652 9.6682 25.0652 12.7073V21.2477H21.8566L21.8652 21.2391ZM21.7876 15.7636H19.1914C18.0097 15.7636 17.3456 16.3146 17.3456 17.2357C17.3456 18.1569 17.9494 18.7251 19.2345 18.7251C20.1402 18.7251 20.7267 18.6477 21.3046 18.1053C21.6582 17.7781 21.7876 17.2616 21.7876 16.4609V15.7636Z" fill="#07509D"/>
<path d="M30.1454 21.2391C27.4457 21.2391 26.3071 19.3708 26.3071 17.5285V3.52118H29.5847V17.3391C29.5847 18.1139 29.9125 18.5099 30.7492 18.5099H32.0085V21.2477H30.1454V21.2391Z" fill="#07509D"/>
<path d="M40.47 21.2391V20.1199C39.5902 20.9894 38.7535 21.3596 37.2355 21.3596C35.7174 21.3596 34.6565 20.9894 33.8802 20.2146C33.173 19.4914 32.7935 18.4497 32.7935 17.3046C32.7935 15.2384 34.2339 13.551 37.2872 13.551H40.3924V12.9053C40.3924 11.4848 39.6851 10.8649 37.9428 10.8649C36.6835 10.8649 36.097 11.1662 35.4156 11.9324L33.3196 9.91787C34.6048 8.52316 35.8641 8.12714 38.0635 8.12714C41.7465 8.12714 43.67 9.6682 43.67 12.7073V21.2477H40.4614L40.47 21.2391ZM40.3924 15.7636H37.7961C36.6058 15.7636 35.9503 16.3146 35.9503 17.2357C35.9503 18.1569 36.5541 18.7251 37.8479 18.7251C38.7535 18.7251 39.3401 18.6477 39.918 18.1053C40.2716 17.7781 40.401 17.2616 40.401 16.4609V15.7636H40.3924Z" fill="#07509D"/>
<path d="M44.2393 8.32516H47.8619V12.6384L44.2393 8.32516Z" fill="#F17F21"/>
<path d="M51.4672 12.6384H47.8618V8.32516L51.4672 12.6384Z" fill="#F6AA1C"/>
<path d="M51.4673 12.6384H55.0899V8.32516L51.4673 12.6384Z" fill="#F6AA1C"/>
<path d="M58.7038 8.32516H55.0898V12.6384L58.7038 8.32516Z" fill="#F17F21"/>
<path d="M44.2393 21.2218H47.8619V16.9086L44.2393 21.2218Z" fill="#07509D"/>
<path d="M51.4672 16.9086H47.8618V21.2218L51.4672 16.9086Z" fill="#03B3E2"/>
<path d="M47.8618 16.9086H51.4758V12.5868L47.8618 16.9086Z" fill="#5C9D43"/>
<path d="M55.0899 16.9086H51.4673V12.5868L55.0899 16.9086Z" fill="#8AC340"/>
<path d="M51.4673 16.9086H55.0899V21.2218L51.4673 16.9086Z" fill="#03B3E2"/>
<path d="M58.7038 21.2218H55.0898V16.9086L58.7038 21.2218Z" fill="#07509D"/>
<path d="M65.7938 23.3311C65.5178 24.0543 65.2159 24.5967 64.8105 25.0013C64.0515 25.7503 63.0682 26 61.9814 26H60.6963V23.0901H61.4553C62.3868 23.0901 62.7663 22.8662 63.0941 21.9192L63.6461 20.3265L59.1523 8.2821H62.6111L65.3367 16.2973L67.9588 8.2821H71.4175L65.7852 23.3397L65.7938 23.3311Z" fill="#07509D"/>
<path d="M90.9021 17.5027H81.259V21.196H90.9021V17.5027Z" fill="#07509D"/>
<path d="M89.4272 8.66092H81.259V12.3543H89.4272V8.66092Z" fill="#8AC340"/>
<path d="M90.9021 0H81.259V3.69338H90.9021V0Z" fill="#07509D"/>
</g>
<defs>
<clipPath id="clip0_50_1820">
<rect width="177" height="26" fill="white"/>
</clipPath>
</defs>
</svg>
