<svg width="368" height="54" viewBox="0 0 368 54" fill="none" xmlns="http://www.w3.org/2000/svg">
<g clip-path="url(#clip0_24_2710)">
<path d="M208.075 44.112V41.5908C206.192 43.6471 204.201 44.4338 201.314 44.4338C198.588 44.4338 196.185 43.5577 194.661 42.002C192.043 39.3736 191.828 35.1895 191.828 30.6477C191.828 26.106 192.043 21.9756 194.661 19.3471C196.185 17.7914 198.535 16.9153 201.26 16.9153C203.986 16.9153 206.138 17.6305 207.913 19.5974V7.36694H214.728V44.112H208.075ZM203.251 22.9411C199.162 22.9411 198.642 26.3027 198.642 30.6299C198.642 34.957 199.162 38.3722 203.251 38.3722C207.34 38.3722 207.913 34.9749 207.913 30.6299C207.913 26.2848 207.34 22.9411 203.251 22.9411Z" fill="white"/>
<path d="M235.207 44.112V41.6265C233.432 43.4861 230.903 44.4159 228.393 44.4159C225.667 44.4159 223.461 43.5398 221.955 42.0378C219.749 39.8742 219.175 37.3351 219.175 34.4027V17.2192H225.99V33.4729C225.99 37.1384 228.339 38.3722 230.491 38.3722C232.643 38.3722 235.046 37.1384 235.046 33.4729V17.2192H241.86V44.112H235.207Z" fill="white"/>
<path d="M257.48 44.4159C252.028 44.4159 245.268 41.5192 245.268 30.6298C245.268 19.7404 252.028 16.8973 257.48 16.8973C261.246 16.8973 264.079 18.0238 266.482 20.5093L261.873 25.051C260.457 23.549 259.255 22.941 257.48 22.941C255.848 22.941 254.593 23.5132 253.606 24.6934C252.566 25.9808 252.082 27.7867 252.082 30.6298C252.082 33.4728 252.548 35.3324 253.606 36.6199C254.593 37.8 255.866 38.3722 257.48 38.3722C259.255 38.3722 260.475 37.7463 261.873 36.2622L266.482 40.7503C264.079 43.2358 261.246 44.4159 257.48 44.4159Z" fill="white"/>
<path d="M282.622 44.112V41.7875C280.793 43.5934 279.053 44.3623 275.915 44.3623C272.777 44.3623 270.517 43.5398 268.939 41.9842C267.468 40.4822 266.679 38.3186 266.679 35.9404C266.679 31.6491 269.674 28.1444 276.112 28.1444H282.442V26.8034C282.442 23.853 280.972 22.5656 277.367 22.5656C274.911 22.5656 273.601 23.2451 272.131 24.8901L267.827 20.706C270.499 17.8093 273.063 16.8795 277.618 16.8795C285.312 16.8795 289.257 20.0802 289.257 26.3742V44.0762H282.604L282.622 44.112ZM282.46 32.7577H277.278C274.552 32.7577 273.243 33.8484 273.243 35.851C273.243 37.7106 274.552 38.8908 277.385 38.8908C279.071 38.8908 280.272 38.6762 281.42 37.6034C282.209 36.9239 282.46 35.9047 282.46 34.206V32.7577Z" fill="white"/>
<path d="M302.258 44.112C296.699 44.112 294.35 40.2497 294.35 36.4232V23.1021H291.463V17.9881H294.35V10.0491H301.164V17.9881H305.988V23.1021H301.164V36.012C301.164 37.5676 301.9 38.4438 303.513 38.4438H305.97V44.112H302.258Z" fill="white"/>
<path d="M309.18 12.6239V7.15234H316.156V12.6239H309.18ZM309.288 44.1119V17.9881H316.102V44.1119H309.288Z" fill="white"/>
<path d="M339.666 41.1079C337.945 42.8603 335.219 44.4159 331.184 44.4159C327.149 44.4159 324.477 42.8603 322.755 41.1079C320.299 38.5331 319.671 35.4755 319.671 30.6298C319.671 25.7841 320.299 22.7801 322.755 20.2053C324.477 18.453 327.149 16.8973 331.184 16.8973C335.219 16.8973 337.945 18.3993 339.666 20.2053C342.123 22.7801 342.751 25.7841 342.751 30.6298C342.751 35.4755 342.177 38.5689 339.666 41.1079ZM334.376 24.1391C333.587 23.3702 332.547 22.9589 331.184 22.9589C329.821 22.9589 328.835 23.3702 328.046 24.1391C326.629 25.4801 326.468 27.9119 326.468 30.6477C326.468 33.3834 326.629 35.8689 328.046 37.2099C328.835 37.9788 329.875 38.3901 331.184 38.3901C332.493 38.3901 333.587 37.9788 334.376 37.2099C335.793 35.8689 335.954 33.4371 335.954 30.6477C335.954 27.8583 335.793 25.4801 334.376 24.1391Z" fill="white"/>
<path d="M361.203 44.112V27.8583C361.203 24.1928 358.854 22.959 356.702 22.959C354.55 22.959 352.147 24.1928 352.147 27.8583V44.112H345.333V17.2193H351.986V19.7047C353.761 17.8451 356.29 16.9153 358.8 16.9153C361.526 16.9153 363.732 17.7914 365.238 19.2934C367.444 21.457 368.018 23.9961 368.018 26.9285V44.112H361.203Z" fill="white"/>
<path d="M166.811 37.8C167.493 38.4616 167.869 39.302 167.869 40.4463C167.869 41.5907 167.493 42.4311 166.811 43.1106C165.807 44.094 164.677 44.1119 162.759 44.1119C160.84 44.1119 159.71 44.1119 158.706 43.1106C158.024 42.449 157.648 41.5907 157.648 40.4463C157.648 39.302 158.024 38.4616 158.706 37.8C159.71 36.8165 160.84 36.7808 162.759 36.7808C164.677 36.7808 165.807 36.8165 166.811 37.8ZM159.925 39.1947C159.602 39.4808 159.387 39.9099 159.387 40.4284C159.387 40.947 159.602 41.394 159.925 41.6801C160.356 42.0377 160.822 42.1629 162.759 42.1629C164.695 42.1629 165.144 42.0556 165.574 41.6801C165.897 41.394 166.13 40.947 166.13 40.4284C166.13 39.9099 165.897 39.4629 165.574 39.1947C165.144 38.8371 164.677 38.7119 162.759 38.7119C160.84 38.7119 160.356 38.8371 159.925 39.1947Z" fill="white"/>
<path d="M167.78 29.6999L161.593 33.6337H167.78V35.5648H157.701V33.8304L163.87 29.8966H157.701V27.9655H167.78V29.6999Z" fill="white"/>
<path d="M167.78 26.4278H157.701V24.4967H166.022V19.9907H167.78V26.4278Z" fill="white"/>
<path d="M167.78 19.186H157.701V17.2549H167.78V19.186Z" fill="white"/>
<path d="M167.78 9.83441L161.593 13.7682H167.78V15.6993H157.701V13.9649L163.87 10.0311H157.701V8.09998H167.78V9.83441Z" fill="white"/>
<path d="M167.78 6.56219H157.701V0.0178223H159.459V4.61319H161.826V0.715173H163.583V4.63107H166.022V0.0178223H167.78V6.56219Z" fill="white"/>
<path d="M24.299 40.2318C21.4118 43.1285 17.9508 44.4159 13.7545 44.4159C9.55821 44.4159 6.40203 43.0748 3.67623 40.3748C2.04434 38.7656 1.05804 36.906 0.62765 34.8497C0.215194 32.7755 0 29.7358 0 25.6947C0 21.6536 0.215194 18.6139 0.62765 16.5397C1.04011 14.4119 2.04434 12.606 3.67623 11.0146C6.40203 8.33245 9.7734 6.97351 13.7545 6.97351C22.2547 6.97351 26.8275 12.3556 27.8138 18.757H20.4614C19.5647 15.1808 17.359 13.3748 13.7366 13.3748C11.7998 13.3748 10.2217 14.0543 9.07402 15.3417C7.71112 17.0404 7.29867 18.3993 7.29867 25.6768C7.29867 32.9543 7.60353 34.3669 9.07402 36.0656C10.1679 37.353 11.746 37.9788 13.7366 37.9788C15.8885 37.9788 17.628 37.2993 18.9371 35.9046C20.031 34.6709 20.6228 33.0079 20.6228 30.9874V29.5927H13.7545V23.6026H27.8676V28.9848C27.8676 34.3669 26.8634 37.5139 24.299 40.196" fill="white"/>
<path d="M45.4598 44.112V41.7875C43.6306 43.5934 41.8911 44.3623 38.735 44.3623C35.5788 44.3623 33.373 43.5934 31.7591 41.9842C30.2886 40.4822 29.4995 38.3186 29.4995 35.9404C29.4995 31.6491 32.4943 28.1444 38.8426 28.1444H45.2984V26.8034C45.2984 23.853 43.8279 22.5656 40.2055 22.5656C37.5873 22.5656 36.3678 23.1914 34.9511 24.7828L30.5934 20.5987C33.2654 17.702 35.8836 16.8795 40.4565 16.8795C48.1138 16.8795 52.1129 20.0802 52.1129 26.3921V44.1298H45.4418L45.4598 44.112ZM45.2984 32.7398H39.9006C37.4438 32.7398 36.063 33.8842 36.063 35.7974C36.063 37.7106 37.3183 38.8908 39.9903 38.8908C41.8732 38.8908 43.0926 38.7298 44.2941 37.6034C45.0294 36.9239 45.2984 35.851 45.2984 34.1881V32.7398Z" fill="white"/>
<path d="M62.6753 44.1119C57.0623 44.1119 54.6952 40.2318 54.6952 36.4053V7.31323H61.5097V36.0119C61.5097 37.6212 62.1911 38.4437 63.9306 38.4437H66.5488V44.1298H62.6753V44.1119Z" fill="white"/>
<path d="M84.1409 44.112V41.7875C82.3118 43.5934 80.5723 44.3623 77.4161 44.3623C74.2599 44.3623 72.0542 43.5934 70.4402 41.9842C68.9697 40.4822 68.1807 38.3186 68.1807 35.9404C68.1807 31.6491 71.1755 28.1444 77.5237 28.1444H83.9795V26.8034C83.9795 23.853 82.509 22.5656 78.8866 22.5656C76.2684 22.5656 75.049 23.1914 73.6323 24.7828L69.2746 20.5987C71.9466 17.702 74.5648 16.8795 79.1377 16.8795C86.795 16.8795 90.794 20.0802 90.794 26.3921V44.1298H84.123L84.1409 44.112ZM83.9795 32.7398H78.5817C76.107 32.7398 74.7441 33.8842 74.7441 35.7974C74.7441 37.7106 75.9994 38.8908 78.6893 38.8908C80.5723 38.8908 81.7917 38.7298 82.9932 37.6034C83.7285 36.9239 83.9975 35.851 83.9975 34.1881V32.7398H83.9795Z" fill="white"/>
<path d="M91.9776 17.2908H99.5094V26.2491L91.9776 17.2908Z" fill="white"/>
<path d="M107.005 26.2491H99.5094V17.2908L107.005 26.2491Z" fill="white"/>
<path d="M107.005 26.2491H114.537V17.2908L107.005 26.2491Z" fill="white"/>
<path d="M122.051 17.2908H114.537V26.2491L122.051 17.2908Z" fill="white"/>
<path d="M91.9776 44.0762H99.5094V35.1179L91.9776 44.0762Z" fill="white"/>
<path d="M107.005 35.1179H99.5094V44.0762L107.005 35.1179Z" fill="white"/>
<path d="M99.5094 35.1179H107.023V26.1417L99.5094 35.1179Z" fill="white"/>
<path d="M114.537 35.1179H107.005V26.1417L114.537 35.1179Z" fill="white"/>
<path d="M107.005 35.1179H114.537V44.0762L107.005 35.1179Z" fill="white"/>
<path d="M122.051 44.0762H114.537V35.1179L122.051 44.0762Z" fill="white"/>
<path d="M136.792 48.4569C136.218 49.9589 135.59 51.0854 134.747 51.9258C133.169 53.4814 131.125 54 128.865 54H126.193V47.9563H127.772C129.708 47.9563 130.497 47.4914 131.179 45.5245L132.326 42.2165L122.983 17.2013H130.175L135.841 33.8483L141.293 17.2013H148.484L136.774 48.4748L136.792 48.4569Z" fill="white"/>
<path d="M188.994 36.3517H168.945V44.0225H188.994V36.3517Z" fill="white"/>
<path d="M185.928 17.988H168.945V25.6589H185.928V17.988Z" fill="white"/>
<path d="M188.994 0H168.945V7.67086H188.994V0Z" fill="white"/>
</g>
<defs>
<clipPath id="clip0_24_2710">
<rect width="368" height="54" fill="white"/>
</clipPath>
</defs>
</svg>
