<svg width="146" height="24" viewBox="0 0 146 24" fill="none" xmlns="http://www.w3.org/2000/svg">
<g clip-path="url(#clip0_282_11964)">
<path d="M3.94292 12.9678C3.92406 13.3767 4.81703 21.1893 4.87362 21.8025C4.98053 22.7735 5.40815 23.7892 6.13762 23.8148C6.86709 23.7892 7.29471 22.7735 7.40162 21.8025C7.4645 21.2595 8.36376 13.1722 8.33861 12.9423C8.13109 9.03915 4.1756 8.91139 3.94292 12.9678Z" fill="#0058A1"/>
<path d="M9.18135 4.24168C9.31969 4.38222 9.55237 4.38222 9.69072 4.24168L10.4391 3.4815C10.5774 3.33457 10.5774 3.1046 10.4391 2.96406L10.4076 2.93212C10.2693 2.79159 10.0366 2.79159 9.89824 2.93212L9.1499 3.69231C9.01156 3.83284 9.01156 4.0692 9.1499 4.20974L9.18135 4.24168Z" fill="#D9218E"/>
<path d="M11.9294 5.65344H10.1561C9.95482 5.65344 9.79761 5.81953 9.79761 6.01756V6.05589C9.79761 6.26031 9.96111 6.42001 10.1561 6.42001H11.9294C12.1307 6.42001 12.2879 6.25392 12.2879 6.05589V6.02395C12.2942 5.81953 12.1307 5.65344 11.9294 5.65344Z" fill="#88C340"/>
<path d="M9.55864 8.63665C9.414 8.49612 9.18761 8.49612 9.04927 8.63665L9.01782 8.66221C8.87948 8.80913 8.87948 9.0391 9.01782 9.17964L9.76616 9.93982C9.91079 10.0804 10.1372 10.0804 10.2755 9.93982L10.307 9.90788C10.4516 9.76734 10.4516 9.53098 10.307 9.39045L9.55864 8.63665Z" fill="#D9218E"/>
<path d="M3.2385 8.63665C3.09386 8.49612 2.86747 8.49612 2.72913 8.63665L1.98079 9.39683C1.83616 9.54376 1.83616 9.77373 1.98079 9.91427L2.01223 9.94621C2.15058 10.0867 2.38326 10.0867 2.52161 9.94621L3.26994 9.18603C3.40829 9.04549 3.40829 8.80913 3.26994 8.66859L3.2385 8.63665Z" fill="#D9218E"/>
<path d="M2.49655 6.0623V6.02397C2.49655 5.81955 2.33305 5.65985 2.1381 5.65985H0.358446C0.163502 5.65346 0 5.81955 0 6.02397V6.0623C0 6.26671 0.163502 6.42642 0.358446 6.42642H2.13181C2.33305 6.4328 2.49655 6.26671 2.49655 6.0623Z" fill="#88C340"/>
<path d="M2.59711 4.24168C2.73545 4.38222 2.96813 4.38222 3.10648 4.24168L3.13792 4.20974C3.27627 4.0692 3.27627 3.83284 3.13792 3.69231L2.38958 2.93212C2.24495 2.79159 2.01856 2.79159 1.88021 2.93212L1.85506 2.96406C1.71042 3.11099 1.71042 3.34096 1.85506 3.4815L2.59711 4.24168Z" fill="#D9218E"/>
<path d="M6.12505 2.67022H6.16278C6.36401 2.67022 6.52123 2.50413 6.52123 2.3061V0.36412C6.52751 0.16609 6.36401 0 6.16907 0H6.12505C5.92381 0 5.7666 0.16609 5.7666 0.36412V2.29971C5.7666 2.50413 5.92381 2.67022 6.12505 2.67022Z" fill="#88C340"/>
<path d="M13.7153 16.9539C13.7153 20.8762 16.3377 23.7572 20.0982 23.8019L24.7769 23.8083V22.0325H20.1799C17.4444 22.0261 15.6774 19.7775 15.6774 16.9156C15.6774 14.0857 17.369 11.7221 20.1988 11.6965H24.7706V9.99731H20.0919C16.2999 10.074 13.7153 13.1466 13.7153 16.9539Z" fill="#0058A1"/>
<path d="M52.8238 20.8698L45.9881 10.5148C45.7492 10.1698 45.3656 9.96539 44.9505 9.96539C44.2525 9.96539 43.6865 10.5403 43.6865 11.2494V23.8084H45.5479V12.8847L52.4087 23.2654C52.6414 23.6039 53.025 23.8084 53.4338 23.8084C54.1255 23.8084 54.6852 23.2398 54.6852 22.5371V9.97178H52.8238V20.8698Z" fill="#0058A1"/>
<path d="M6.13756 3.56458C4.60945 3.56458 3.37061 4.82303 3.37061 6.37533C3.37061 7.92763 4.60945 9.18608 6.13756 9.18608C7.66567 9.18608 8.90451 7.92763 8.90451 6.37533C8.90451 4.82303 7.66567 3.56458 6.13756 3.56458Z" fill="#0058A1"/>
<path d="M39.3159 22.1858H29.1536L27.3991 23.2143L26.3804 23.8147H42.0891L40.7937 23.0482L39.3159 22.1858Z" fill="#D9218E"/>
<path d="M29.1536 22.1858L34.2347 12.9805V9.99731L26.3804 23.8147H26.3867L27.3991 23.2142L29.1536 22.1858Z" fill="#0058A1"/>
<path d="M27.3992 23.2142L29.16 22.1794L27.3992 23.2142Z" fill="#0058A1"/>
<path d="M39.316 22.1794V22.1858L40.7938 23.0545L42.0892 23.8147L34.2349 9.99731V12.9805L39.316 22.1794Z" fill="#88C340"/>
<path d="M40.7937 23.0546L39.3159 22.1858L40.7937 23.0546Z" fill="#0058A1"/>
<path d="M145.152 10.3232C144.995 10.1634 144.8 10.0868 144.555 10.0868H142.53H140.737H137.008C136.769 10.0868 136.568 10.1634 136.411 10.3232C136.254 10.4829 136.178 10.6809 136.178 10.93C136.178 11.1728 136.254 11.3772 136.411 11.5369C136.568 11.6966 136.763 11.7732 137.008 11.7732H139.832V22.7607C139.832 23.2335 140.14 23.6551 140.568 23.7573C140.637 23.7764 140.712 23.7828 140.788 23.7828C140.995 23.7828 141.203 23.7126 141.373 23.572C141.605 23.3868 141.737 23.1057 141.737 22.8118V11.7732H144.561C144.8 11.7732 145.001 11.6966 145.158 11.5369C145.315 11.3772 145.391 11.1792 145.391 10.93C145.385 10.6809 145.303 10.4829 145.152 10.3232Z" fill="#0058A1"/>
<path d="M97.5037 10.0868C97.2522 10.0868 97.0384 10.1698 96.8623 10.3423C96.6862 10.5148 96.6044 10.732 96.6044 11.0003V20.5888L89.0834 10.4254C88.901 10.2018 88.6683 10.0932 88.3916 10.0932C88.1401 10.0932 87.9263 10.1762 87.7628 10.3487C87.593 10.5212 87.5112 10.7384 87.5112 11.0067V22.8693C87.5112 23.1249 87.593 23.342 87.7628 23.5209C87.9263 23.6998 88.1401 23.7828 88.3916 23.7828C88.6557 23.7828 88.8695 23.6934 89.0393 23.5209C89.2091 23.3484 89.2909 23.1312 89.2909 22.8693V13.2936L96.812 23.457C96.8937 23.5592 97.0006 23.6423 97.1327 23.6934C97.2647 23.7445 97.3905 23.77 97.5037 23.77C97.7678 23.77 97.9816 23.6806 98.1451 23.5081C98.3086 23.3357 98.3841 23.1185 98.3841 22.8566V11.0003C98.3841 10.732 98.3024 10.5148 98.1451 10.3423C97.9816 10.1698 97.7678 10.0868 97.5037 10.0868Z" fill="#0058A1"/>
<path d="M111.024 10.0868C110.772 10.0868 110.559 10.1698 110.383 10.3423C110.206 10.5148 110.125 10.732 110.125 11.0003V20.5888L102.604 10.4254C102.421 10.2018 102.189 10.0932 101.912 10.0932C101.66 10.0932 101.447 10.1762 101.283 10.3487C101.113 10.5212 101.031 10.7384 101.031 11.0067V22.8693C101.031 23.1249 101.113 23.342 101.283 23.5209C101.447 23.6998 101.66 23.7828 101.912 23.7828C102.176 23.7828 102.39 23.6934 102.56 23.5209C102.729 23.3484 102.811 23.1312 102.811 22.8693V13.2936L110.332 23.457C110.414 23.5592 110.521 23.6423 110.653 23.6934C110.785 23.7445 110.911 23.77 111.024 23.77C111.288 23.77 111.502 23.6806 111.665 23.5081C111.829 23.3357 111.904 23.1185 111.904 22.8566V11.0003C111.904 10.732 111.823 10.5148 111.665 10.3423C111.502 10.1698 111.288 10.0868 111.024 10.0868Z" fill="#0058A1"/>
<path d="M123.89 11.5432C124.054 11.3899 124.129 11.1919 124.129 10.9491C124.129 10.6936 124.048 10.4828 123.89 10.3295C123.727 10.1698 123.519 10.0931 123.249 10.0931H115.451C115.2 10.0931 114.986 10.1762 114.81 10.3487C114.64 10.5148 114.552 10.7383 114.552 11.0066V22.8757C114.552 23.1312 114.64 23.3484 114.81 23.5273C114.986 23.6997 115.193 23.7892 115.451 23.7892H123.249C123.513 23.7892 123.727 23.7125 123.89 23.5528C124.054 23.3931 124.129 23.1887 124.129 22.9332C124.129 22.6904 124.048 22.486 123.89 22.3391C123.727 22.1858 123.519 22.1091 123.249 22.1091H116.344V17.7269V16.0468V11.786H123.249C123.513 11.7732 123.727 11.6965 123.89 11.5432Z" fill="#0058A1"/>
<path d="M117.992 16.066C117.52 16.066 117.136 16.4557 117.136 16.9348C117.136 17.4139 117.52 17.8036 117.992 17.8036H121.413C121.815 17.8036 122.255 17.4778 122.268 16.9604C122.28 16.4749 121.859 16.0724 121.375 16.0724H117.992V16.066Z" fill="#D9218E"/>
<path d="M136.908 19.8669C136.53 19.7008 136.084 19.8477 135.87 20.2182C135.134 21.4767 134.09 21.943 133.355 22.1538C130.871 22.8629 128.928 21.7322 127.884 20.6399C126.821 19.5347 126.293 18.0655 126.4 16.5132C126.569 14.0474 128.355 12.0415 130.745 11.6199C131.839 11.4283 132.933 11.5816 133.921 12.0543C134.273 12.2268 134.707 12.1182 134.946 11.7924C135.097 11.588 135.147 11.326 135.09 11.0769C135.027 10.8214 134.858 10.6106 134.625 10.502C133.619 10.0229 132.493 9.79291 131.374 9.83763C129.531 9.91428 127.827 10.7128 126.569 12.0798C125.318 13.4469 124.651 15.2292 124.702 17.0945C124.758 19.0237 125.538 20.7932 126.909 22.09C128.198 23.3101 129.858 23.9681 131.625 23.9681C131.726 23.9681 131.827 23.968 131.927 23.9617C133.229 23.9042 134.367 23.5848 135.31 23.0098C136.084 22.5371 136.738 21.8855 137.254 21.087C137.386 20.8762 137.423 20.6271 137.354 20.3907C137.291 20.1544 137.128 19.9691 136.908 19.8669Z" fill="#0058A1"/>
<path d="M69.5952 10.8789C69.6203 10.8917 69.6517 10.9108 69.6768 10.93C69.6454 10.9108 69.6203 10.8917 69.5952 10.8789Z" fill="#0058A1"/>
<path d="M73.2427 21.3681C73.2678 21.4064 73.2928 21.4448 73.3242 21.4831C73.343 21.5086 73.3681 21.5278 73.3869 21.5534C73.3681 21.5278 73.3493 21.5086 73.3242 21.4831C73.2928 21.4511 73.2615 21.4128 73.2427 21.3681Z" fill="#0058A1"/>
<path d="M84.593 20.0266C84.5616 20.0969 84.524 20.1671 84.4863 20.2374C84.524 20.1608 84.5553 20.0969 84.593 20.0266Z" fill="#0058A1"/>
<path d="M84.4866 20.231C84.5243 20.1607 84.5558 20.0905 84.5935 20.0202C84.5558 20.0969 84.5243 20.1671 84.4866 20.231ZM78.4873 23.9042H78.4433H78.4936H78.4873ZM73.8778 20.148H73.8841H73.8967H73.8778ZM73.3181 21.4831C73.2867 21.4448 73.2615 21.4064 73.2364 21.3681C73.2615 21.4128 73.293 21.4511 73.3181 21.4831C73.337 21.5086 73.3559 21.5278 73.381 21.5533C73.3622 21.5342 73.3433 21.5086 73.3181 21.4831ZM84.9645 14.6031C84.6501 13.7152 84.1596 12.9167 83.5244 12.2204C83.3106 11.984 83.0779 11.7668 82.839 11.5688V11.8882C82.839 12.4759 82.5686 12.9933 82.1535 13.3319C82.9396 14.1432 83.4678 15.21 83.5999 16.3982C83.7634 17.9058 83.3106 19.3558 82.3233 20.4738C81.3486 21.5853 79.9525 22.2177 78.4873 22.2177C76.9718 22.2177 75.538 21.5406 74.557 20.3588C74.3872 20.1544 74.1482 20.0394 73.8841 20.0394C73.6074 20.0394 73.3496 20.1671 73.1861 20.3971C72.9408 20.7293 72.966 21.2084 73.249 21.5342C73.8778 22.288 74.6765 22.9076 75.5569 23.3228C76.475 23.7636 77.4623 23.9872 78.4873 23.9872C78.5628 23.9872 78.6382 23.9872 78.7137 23.9872C80.4116 23.9297 82.0215 23.2334 83.2603 22.0261C84.4992 20.8123 85.2475 19.2025 85.3607 17.4841C85.4299 16.5004 85.2978 15.5294 84.9645 14.6031Z" fill="#0058A1"/>
<path d="M81.556 8.70053C81.5371 8.68137 81.512 8.66859 81.4868 8.64943C81.4554 8.62388 81.4176 8.60471 81.3799 8.58555C81.2667 8.52805 81.141 8.5025 81.0089 8.5025H78.5249C78.4809 8.5025 78.4369 8.5025 78.3929 8.50889C78.3677 8.51528 78.3363 8.52167 78.3111 8.52805C78.2042 8.56 78.1036 8.60471 78.0155 8.67498C77.9967 8.69414 77.9715 8.70692 77.9527 8.72608C77.9401 8.73247 77.9338 8.74525 77.9212 8.75803C77.7703 8.91134 77.6697 9.12853 77.6697 9.36489V9.83122V10.042V11.8371V11.8882C77.6697 11.9712 77.6823 12.0479 77.7011 12.1245C77.7074 12.1437 77.7137 12.1629 77.72 12.182C77.7388 12.2331 77.7577 12.2779 77.7829 12.3226C77.8017 12.3545 77.8206 12.3801 77.8395 12.4056C77.8709 12.4439 77.9024 12.4823 77.9401 12.5206C77.9652 12.5462 77.9904 12.5653 78.0155 12.5845C78.0721 12.6228 78.1287 12.6611 78.1916 12.6867C78.2231 12.6995 78.2545 12.7122 78.2922 12.7186C78.3174 12.725 78.3488 12.7314 78.374 12.7378C78.3991 12.7442 78.4306 12.7442 78.4557 12.7506C78.4746 12.7506 78.4935 12.7506 78.5123 12.7506H80.8014H80.9963C81.1221 12.7506 81.2478 12.7186 81.3548 12.6675C81.3925 12.6484 81.4239 12.6292 81.4554 12.61C81.4868 12.5909 81.5183 12.5653 81.5497 12.5398C81.5811 12.5142 81.6063 12.4887 81.6315 12.4567C81.6315 12.4567 81.6315 12.4567 81.6377 12.4503C81.6629 12.4184 81.688 12.3928 81.7069 12.3609C81.7069 12.3609 81.7069 12.3545 81.7132 12.3545C81.7195 12.3417 81.7321 12.3226 81.7384 12.3098V12.3034C81.7446 12.2842 81.7572 12.2715 81.7635 12.2523C81.7635 12.2459 81.7635 12.2459 81.7698 12.2459C81.7761 12.2331 81.7824 12.214 81.7887 12.2012L81.795 12.1948C81.8012 12.1756 81.8075 12.1629 81.8138 12.1437V12.1373C81.8201 12.1182 81.8201 12.1054 81.8264 12.0926V12.0798C81.8327 12.0607 81.8327 12.0415 81.839 12.0223V12.0159C81.839 11.9968 81.8453 11.984 81.8453 11.9648C81.8453 11.9585 81.8453 11.9585 81.8453 11.9521C81.8453 11.9329 81.8453 11.9137 81.8453 11.8946V10.898V9.37128C81.8641 9.10298 81.7446 8.86023 81.556 8.70053Z" fill="#88C340"/>
<path d="M66.4258 23.9042C66.5642 23.9042 66.7025 23.9042 66.8409 23.8978C66.7025 23.8978 66.5642 23.9042 66.4258 23.9042ZM61.0743 21.2531C62.0867 22.5755 63.5646 23.5145 65.2687 23.8084C63.5583 23.5081 62.0805 22.5755 61.0743 21.2531ZM60.2945 14.0602C60.3322 13.9835 60.3637 13.9069 60.4014 13.8366C60.3637 13.9132 60.3322 13.9835 60.2945 14.0602ZM59.9235 18.9662C59.9549 19.0684 59.9801 19.1642 60.0178 19.2665C59.9864 19.1706 59.9549 19.0684 59.9235 18.9662ZM59.9612 14.929C59.9361 15.012 59.9109 15.095 59.8858 15.1781C59.9109 15.095 59.9361 15.012 59.9612 14.929ZM59.7789 18.3466C59.7977 18.4552 59.8229 18.5574 59.848 18.666C59.8229 18.5574 59.7977 18.4552 59.7789 18.3466C59.6908 17.8802 59.6468 17.4011 59.6531 16.9029C59.6594 16.5451 59.6908 16.1874 59.7474 15.8424C59.7537 15.7913 59.7663 15.7402 59.7726 15.6955C59.7977 15.5614 59.8229 15.4336 59.8606 15.3058C59.8292 15.4336 59.7977 15.5614 59.7726 15.6955C59.7663 15.7466 59.7537 15.7913 59.7474 15.8424C59.6908 16.1874 59.6594 16.5451 59.6531 16.9029C59.6468 17.4011 59.6908 17.8802 59.7789 18.3466ZM65.4134 11.7796C65.3065 11.7988 65.2059 11.8243 65.099 11.8563C65.2059 11.8243 65.3065 11.7988 65.4134 11.7796ZM69.2494 12.3737H69.2431H69.2368H69.2494ZM69.6707 10.9236C69.6456 10.9045 69.6204 10.8917 69.5953 10.8725C69.6204 10.8917 69.6456 10.9108 69.6707 10.9236ZM76.7139 10.2337C72.1798 11.3197 71.5195 15.9447 70.8844 18.4488C70.0355 21.4767 67.998 22.173 66.4258 22.173C64.9543 22.173 63.5897 21.5853 62.615 20.4802C61.6277 19.3559 61.1749 17.9122 61.3384 16.4046C61.6088 13.9388 63.5771 12.0032 66.0108 11.7924C66.1554 11.7796 66.3064 11.7732 66.451 11.7732C67.2811 11.7732 68.0986 11.9777 68.8281 12.3673C68.9538 12.4376 69.0985 12.4695 69.2431 12.4695C69.5072 12.4695 69.7525 12.3546 69.916 12.1437C70.0795 11.9393 70.1486 11.6646 70.0983 11.4027C70.0417 11.1344 69.8782 10.9108 69.6393 10.7831C69.1551 10.5276 68.6457 10.3295 68.1175 10.1954C67.5766 10.0612 67.0107 9.99097 66.451 9.99097C65.5266 9.99097 64.6336 10.1762 63.7909 10.534C62.9797 10.8789 62.244 11.3772 61.6088 12.0096C60.98 12.642 60.4769 13.383 60.1247 14.2071C59.76 15.0567 59.5713 15.9638 59.5588 16.8965C59.5462 17.8611 59.716 18.7937 60.0681 19.6689C60.4077 20.5185 60.9045 21.2787 61.5334 21.9303C62.1622 22.5755 62.898 23.0865 63.7218 23.4379C64.577 23.8084 65.4826 23.9936 66.4258 23.9936C69.6707 23.9936 71.7271 22.205 72.5194 19.1131C73.2615 16.2193 73.6639 13.1978 76.7265 12.0863C76.7202 12.016 76.7139 11.9521 76.7139 11.8818V10.2337Z" fill="#0058A1"/>
<path d="M82.1975 7.07796V6.17086C82.1975 5.90256 81.9837 5.68536 81.7195 5.68536H80.8266C80.5624 5.68536 80.3486 5.90256 80.3486 6.17086V7.07796C80.3486 7.34626 80.5624 7.56346 80.8266 7.56346H81.7195C81.9837 7.56346 82.1975 7.34626 82.1975 7.07796Z" fill="#0058A1"/>
<path d="M84.6374 7.37183H83.2351C82.7886 7.37183 82.4302 7.73595 82.4302 8.1895V9.61404C82.4302 10.0676 82.7886 10.4317 83.2351 10.4317H84.6374C85.0839 10.4317 85.4424 10.0676 85.4424 9.61404V8.1895C85.4487 7.74233 85.0839 7.37183 84.6374 7.37183Z" fill="#D9218E"/>
</g>
<defs>
<clipPath id="clip0_282_11964">
<rect width="145.385" height="24" fill="white"/>
</clipPath>
</defs>
</svg>
