<svg width="32" height="32" viewBox="0 0 32 32" fill="none" xmlns="http://www.w3.org/2000/svg">
<path d="M13.3365 29.333C10.2916 29.333 7.24673 29.333 4.20186 29.333C3.15075 29.333 2.65022 28.8166 2.66691 27.7754C2.76701 22.5944 6.60438 18.238 11.7264 17.455C17.3574 16.5971 22.7213 20.3537 23.7975 25.9095C23.9226 26.5509 23.9727 27.209 23.9977 27.8587C24.0394 28.7666 23.4721 29.3163 22.5545 29.3163C19.4846 29.333 16.4147 29.333 13.3365 29.333Z" fill="black"/>
<path d="M6.66652 9.32946C6.66652 5.62717 9.65171 2.65867 13.354 2.66701C17.0396 2.68369 20.0082 5.66053 19.9998 9.3378C19.9998 13.0234 16.998 16.0169 13.3123 16.0003C9.6267 15.9919 6.65818 13.0067 6.66652 9.32946Z" fill="black"/>
<path d="M29.3333 9.34517C29.2746 11.9273 28.1668 14.0179 26.1947 15.6838C25.624 16.1669 24.8184 16.0836 24.3316 15.5255C23.8449 14.9758 23.8952 14.1512 24.4743 13.6514C25.3135 12.9268 25.9933 12.0855 26.3457 11.036C27.0255 8.99534 26.5304 7.20454 25.1205 5.6303C24.9107 5.39708 24.6673 5.19717 24.4407 4.98061C23.9036 4.46419 23.8617 3.67291 24.34 3.12317C24.8184 2.58177 25.6408 2.5068 26.2031 2.98157C28.1752 4.63911 29.283 6.72977 29.3333 9.34517Z" fill="black"/>
<path d="M25.3335 9.35193C25.2855 11.1163 24.6213 12.5526 23.4128 13.6786C22.8847 14.1663 22.1084 14.0865 21.6602 13.5279C21.2041 12.9605 21.2281 12.127 21.7163 11.5773C21.7723 11.5153 21.8363 11.4532 21.8923 11.3911C23.0687 10.1676 23.0607 8.50965 21.9003 7.27725C21.6843 7.04673 21.4842 6.75415 21.3962 6.44383C21.2201 5.86753 21.4602 5.2469 21.9163 4.90999C22.3805 4.56421 22.9807 4.58194 23.4208 4.99865C24.6293 6.13352 25.3015 7.56983 25.3335 9.35193Z" fill="black"/>
</svg>
