<svg width="190" height="190" viewBox="0 0 190 190" fill="none" xmlns="http://www.w3.org/2000/svg">
<circle cx="95" cy="95" r="95" fill="#0056A4" fill-opacity="0.5"/>
<circle cx="95" cy="95" r="79" fill="#0056A4" fill-opacity="0.5"/>
<circle cx="95" cy="95" r="60" fill="#0056A4"/>
<path d="M113.986 87.3196C112.946 87.3196 112.12 88.1463 112.12 89.1863V93.3996C112.12 102.84 104.44 110.52 94.9998 110.52C85.5598 110.52 77.8798 102.84 77.8798 93.3996V89.1596C77.8798 88.1196 77.0532 87.293 76.0132 87.293C74.9732 87.293 74.1465 88.1196 74.1465 89.1596V93.373C74.1465 104.226 82.4932 113.16 93.1332 114.12V119.8C93.1332 120.84 93.9598 121.666 94.9998 121.666C96.0398 121.666 96.8665 120.84 96.8665 119.8V114.12C107.48 113.186 115.853 104.226 115.853 93.373V89.1596C115.826 88.1463 115 87.3196 113.986 87.3196Z" fill="white"/>
<path d="M95 68.333C88.4934 68.333 83.2134 73.613 83.2134 80.1197V93.773C83.2134 100.28 88.4934 105.56 95 105.56C101.507 105.56 106.787 100.28 106.787 93.773V80.1197C106.787 73.613 101.507 68.333 95 68.333ZM98.4934 86.8663C98.3067 87.5597 97.6934 88.013 97 88.013C96.8667 88.013 96.7334 87.9863 96.6 87.9597C95.56 87.6663 94.4667 87.6663 93.4267 87.9597C92.5734 88.1997 91.7467 87.693 91.5334 86.8663C91.2934 86.0397 91.8 85.1863 92.6267 84.973C94.2 84.5463 95.8534 84.5463 97.4267 84.973C98.2267 85.1863 98.7067 86.0397 98.4934 86.8663ZM99.9067 81.693C99.6667 82.333 99.08 82.7063 98.44 82.7063C98.2534 82.7063 98.0934 82.6797 97.9067 82.6263C96.04 81.933 93.96 81.933 92.0934 82.6263C91.2934 82.9197 90.3867 82.493 90.0934 81.693C89.8 80.893 90.2267 79.9863 91.0267 79.7197C93.5867 78.7863 96.4134 78.7863 98.9734 79.7197C99.7734 80.013 100.2 80.893 99.9067 81.693Z" fill="white"/>
</svg>
