<svg width="25" height="24" viewBox="0 0 25 24" fill="none" xmlns="http://www.w3.org/2000/svg">
<path d="M10.5025 22C8.21882 22 5.93517 22 3.65151 22C2.86318 22 2.48779 21.6127 2.5003 20.8318C2.57538 16.946 5.45341 13.6787 9.29495 13.0915C13.5181 12.448 17.5411 15.2655 18.3482 19.4324C18.4421 19.9134 18.4796 20.407 18.4984 20.8942C18.5297 21.5752 18.1042 21.9875 17.416 21.9875C15.1136 22 12.8112 22 10.5025 22Z" fill="black"/>
<path d="M5.50001 6.99685C5.50001 4.22014 7.73891 1.99376 10.5156 2.00001C13.2799 2.01252 15.5062 4.24515 15.5 7.00311C15.5 9.76732 13.2486 12.0125 10.4844 11.9999C7.72014 11.9937 5.49376 9.75481 5.50001 6.99685Z" fill="black"/>
<path d="M22.5 7.00863C22.4559 8.9452 21.6251 10.5132 20.146 11.7626C19.718 12.1249 19.1138 12.0624 18.7487 11.6439C18.3837 11.2316 18.4214 10.6131 18.8557 10.2383C19.4851 9.69484 19.9949 9.06389 20.2593 8.27677C20.7691 6.74626 20.3978 5.40316 19.3404 4.22248C19.183 4.04756 19.0005 3.89763 18.8305 3.73521C18.4277 3.3479 18.3962 2.75444 18.755 2.34213C19.1138 1.93608 19.7306 1.87986 20.1523 2.23594C21.6314 3.47909 22.4622 5.04708 22.5 7.00863Z" fill="black"/>
<path d="M19.5 7.0137C19.464 8.33698 18.9658 9.41422 18.0595 10.2587C17.6634 10.6244 17.0812 10.5646 16.7451 10.1457C16.4029 9.7201 16.4209 9.09503 16.7871 8.68276C16.8291 8.63621 16.8771 8.58966 16.9191 8.54312C17.8014 7.62547 17.7954 6.38199 16.9251 5.45769C16.7631 5.2848 16.613 5.06537 16.547 4.83263C16.4149 4.40041 16.595 3.93493 16.9371 3.68225C17.2852 3.42291 17.7354 3.43621 18.0655 3.74874C18.9718 4.59989 19.476 5.67713 19.5 7.0137Z" fill="black"/>
</svg>
